<?xml version="1.0" encoding="UTF-8" standalone="no"?>
<!-- Created with Inkscape (http://www.inkscape.org/) -->

<svg
   width="110.90306mm"
   height="113.10539mm"
   viewBox="0 0 110.90306 113.10539"
   version="1.1"
   id="svg5"
   xml:space="preserve"
   xmlns="http://www.w3.org/2000/svg"
   xmlns:svg="http://www.w3.org/2000/svg"><defs
     id="defs2" /><g
     id="layer1"
     transform="translate(174.19574,-46.603508)"><path
       id="rect223445"
       style="fill:#c49d5a;fill-opacity:1;stroke-width:0.264583"
       d="m -98.582171,50.847468 -0.03204,52.310502 c -0.01748,28.77072 -0.005,52.38065 0.02739,52.46605 l 0.05891,0.15554 2.023132,-0.002 2.023132,-0.002 0.15503,-0.0987 0.155546,-0.0987 -0.03101,-52.36528 -0.03101,-52.365282 h -2.174544 z m -9.443349,0.917257 -2.17455,0.2651 c -6.83605,0.832978 -12.03443,2.55886 -17.96841,5.966044 -16.91031,9.70959 -27.182,29.193712 -25.70541,48.759811 l 0.18707,2.47892 0.31626,1.78129 c 1.55944,8.78066 4.87079,16.37532 10.25105,23.51071 l 1.45676,1.93115 1.29088,1.36684 c 7.25442,7.67919 15.69086,12.85284 24.0838,14.76964 2.75769,0.62981 5.52015,1.07316 7.70341,1.2361 0.30752,0.0229 0.89479,0.0506 1.30483,0.0615 l 0.74517,0.0196 0.17415,-0.11007 0.17364,-0.10955 -0.0801,-8.8036 c -0.0441,-4.8418 -0.11566,-12.96864 -0.15865,-18.05988 -0.043,-5.09127 -0.0993,-9.29462 -0.12557,-9.34052 -0.0263,-0.0459 -0.50868,-0.23576 -1.07177,-0.42219 -2.39189,-0.79192 -4.77619,-2.19442 -6.51951,-3.83439 l -0.97358,-0.91571 -0.71934,-0.97513 c -1.27858,-1.7339 -1.96956,-3.22266 -2.47271,-5.32474 l -0.26769,-1.11828 -0.005,-2.17455 -0.005,-2.17402 0.28835,-1.180809 c 0.15851,-0.64923 0.43325,-1.59205 0.61082,-2.09548 l 0.32298,-0.91519 0.61288,-1.01079 c 1.94435,-3.207114 4.66966,-5.255729 8.91212,-6.698816 l 1.55288,-0.528133 V 69.980667 51.841723 l -0.86972,-0.03876 z m -2.73368,18.867582 -0.0749,0.08165 c -0.0413,0.04484 -0.51669,0.159998 -1.05627,0.255798 -5.91005,1.049748 -10.84663,3.60628 -14.90348,7.718392 l -1.37253,1.391646 -0.92604,1.225248 c -3.53966,4.685612 -5.59836,10.001282 -6.44767,16.646531 l -0.25579,2.00039 0.003,2.597258 0.002,2.59674 0.17725,1.57768 c 0.38098,3.39018 0.92635,5.82005 2.01125,8.96121 l 0.56586,1.63815 0.84852,1.73942 c 4.11483,8.43664 13.25233,15.59388 19.90835,15.59388 h 0.23099 l -0.077,0.12403 h -5.2e-4 c -0.0422,0.0683 -0.11504,0.117 -0.16226,0.108 -0.0472,-0.009 -0.61737,-0.0866 -1.26659,-0.17311 -2.42979,-0.32359 -5.32696,-0.93236 -6.15053,-1.29191 -0.13667,-0.0597 -0.6956,-0.26427 -1.2423,-0.45476 -0.54671,-0.1905 -1.3126,-0.50365 -1.70171,-0.69608 -0.38913,-0.19243 -0.74575,-0.34985 -0.79272,-0.34985 -0.047,0 -0.59538,-0.28877 -1.21853,-0.64182 -8.38455,-4.75017 -13.63322,-13.32677 -15.0058,-24.51943 l -0.16795,-1.36684 0.004,-3.10628 0.004,-3.106268 0.22066,-1.6154 c 2.19749,-16.082439 12.43156,-26.364314 26.73532,-26.860894 z m -0.74518,13.718026 0.4346,0.09612 0.43512,0.09663 -0.55915,0.148311 c -1.9209,0.510829 -3.86555,1.351097 -5.36918,2.319755 l -0.90589,0.583427 -1.31206,1.320333 -1.31207,1.320849 -0.66145,0.982886 c -1.41211,2.099106 -2.34436,4.580024 -2.85771,7.604184 l -0.25528,1.504822 v 1.87379 1.87327 l 0.31419,1.8402 0.31471,1.84019 0.50488,1.61541 0.50539,1.61541 0.65526,1.38286 c 1.81716,3.83297 4.4621,6.76111 7.66723,8.4894 1.07556,0.57998 3.35071,1.49707 3.71451,1.49707 h 0.23978 v 0.12402 0.12402 l -0.46561,-0.0196 c -1.59628,-0.0681 -3.2034,-0.3333 -4.77542,-0.78807 l -1.53066,-0.44287 -1.28932,-0.62011 c -0.70929,-0.34095 -1.76196,-0.9339 -2.33888,-1.31775 l -1.04903,-0.69763 -1.20768,-1.19425 c -4.20925,-4.16199 -6.18254,-10.24099 -5.48235,-16.88785 l 0.12196,-1.156012 0.43563,-1.7818 c 0.2398,-0.97997 0.57972,-2.10913 0.75551,-2.50941 2.14941,-4.894278 4.88961,-7.757276 9.14001,-9.551352 l 1.34307,-0.567407 1.1498,-0.250631 c 0.63251,-0.13804 1.71052,-0.299968 2.3952,-0.359668 z" /></g></svg>
